<svg width="390" height="313" viewBox="0 0 390 313" fill="none" xmlns="http://www.w3.org/2000/svg">
<mask id="mask0_144_1206" style="mask-type:alpha" maskUnits="userSpaceOnUse" x="0" y="0" width="390" height="313">
<rect width="390" height="313" fill="url(#paint0_linear_144_1206)"/>
</mask>
<g mask="url(#mask0_144_1206)">
<g opacity="0.32">
<rect x="161.856" y="62.8284" width="135.804" height="135.804" rx="22" transform="rotate(45 161.856 62.8284)" stroke="white" stroke-width="4"/>
<path fill-rule="evenodd" clip-rule="evenodd" d="M182.724 126.931L138.627 135.082L141.727 147.766L185.824 139.615L182.724 126.931ZM137.852 131.911C135.838 132.283 134.552 134.005 134.98 135.756L138.081 148.44C138.509 150.192 140.489 151.31 142.503 150.937L186.6 142.787C188.613 142.414 189.899 140.693 189.471 138.941L186.371 126.257C185.942 124.506 183.963 123.388 181.949 123.76L137.852 131.911Z" fill="white"/>
<path fill-rule="evenodd" clip-rule="evenodd" d="M182.649 168.783L138.807 176.887L141.907 189.571L185.749 181.467L182.649 168.783ZM138.032 173.716C136.018 174.088 134.732 175.809 135.16 177.561L138.261 190.245C138.689 191.996 140.669 193.114 142.682 192.742L186.524 184.639C188.538 184.266 189.824 182.545 189.396 180.793L186.296 168.109C185.867 166.358 183.888 165.24 181.874 165.612L138.032 173.716Z" fill="white"/>
<path d="M133.679 154.563C133.679 152.773 135.348 151.321 137.407 151.321H185.872C187.931 151.321 189.6 152.773 189.6 154.563V161.857C189.6 163.648 187.931 165.099 185.872 165.099H137.407C135.348 165.099 133.679 163.648 133.679 161.857V154.563Z" fill="white"/>
<rect x="137.856" y="266.828" width="135.804" height="135.804" rx="22" transform="rotate(45 137.856 266.828)" stroke="white" stroke-width="4"/>
<rect x="276.806" y="174.671" width="135.804" height="135.804" rx="22" transform="rotate(45 276.806 174.671)" stroke="white" stroke-width="4"/>
<path fill-rule="evenodd" clip-rule="evenodd" d="M297.674 238.774L253.577 246.925L256.677 259.609L300.774 251.458L297.674 238.774ZM252.802 243.754C250.788 244.126 249.502 245.848 249.93 247.599L253.031 260.283C253.459 262.035 255.438 263.153 257.452 262.78L301.549 254.63C303.563 254.257 304.849 252.536 304.421 250.784L301.32 238.1C300.892 236.349 298.913 235.231 296.899 235.603L252.802 243.754Z" fill="white"/>
<path fill-rule="evenodd" clip-rule="evenodd" d="M297.599 280.626L253.757 288.73L256.857 301.414L300.699 293.31L297.599 280.626ZM252.982 285.559C250.968 285.931 249.682 287.652 250.11 289.404L253.211 302.088C253.639 303.839 255.618 304.957 257.632 304.585L301.474 296.482C303.488 296.109 304.774 294.388 304.346 292.636L301.245 279.952C300.817 278.201 298.838 277.083 296.824 277.455L252.982 285.559Z" fill="white"/>
<path d="M248.628 266.406C248.628 264.616 250.298 263.164 252.357 263.164H300.822C302.881 263.164 304.55 264.616 304.55 266.406V273.7C304.55 275.491 302.881 276.942 300.822 276.942H252.357C250.298 276.942 248.628 275.491 248.628 273.7V266.406Z" fill="white"/>
<rect x="324.142" y="-1.17157" width="135.804" height="135.804" rx="22" transform="rotate(45 324.142 -1.17157)" stroke="white" stroke-width="4"/>
<path fill-rule="evenodd" clip-rule="evenodd" d="M345.01 62.931L300.913 71.0818L304.014 83.7662L348.111 75.6154L345.01 62.931ZM300.138 67.9107C298.124 68.283 296.839 70.0045 297.267 71.7559L300.367 84.4402C300.795 86.1916 302.775 87.3096 304.789 86.9373L348.886 78.7865C350.9 78.4142 352.185 76.6927 351.757 74.9414L348.657 62.257C348.229 60.5056 346.249 59.3877 344.235 59.7599L300.138 67.9107Z" fill="white"/>
<path fill-rule="evenodd" clip-rule="evenodd" d="M344.935 104.783L301.093 112.887L304.194 125.571L348.036 117.467L344.935 104.783ZM300.318 109.716C298.304 110.088 297.018 111.809 297.447 113.561L300.547 126.245C300.975 127.996 302.955 129.114 304.969 128.742L348.811 120.638C350.825 120.266 352.11 118.545 351.682 116.793L348.582 104.109C348.154 102.358 346.174 101.24 344.16 101.612L300.318 109.716Z" fill="white"/>
<path d="M295.965 90.563C295.965 88.7725 297.634 87.321 299.693 87.321H348.158C350.217 87.321 351.886 88.7725 351.886 90.563V97.8573C351.886 99.6478 350.217 101.099 348.158 101.099H299.693C297.634 101.099 295.965 99.6478 295.965 97.8573V90.563Z" fill="white"/>
<rect x="389.426" y="287.291" width="135.804" height="135.804" rx="22" transform="rotate(45 389.426 287.291)" stroke="white" stroke-width="4"/>
<rect x="-42.1438" y="312.828" width="135.804" height="135.804" rx="22" transform="rotate(45 -42.1438 312.828)" stroke="white" stroke-width="4"/>
<rect x="23.8562" y="152.828" width="135.804" height="135.804" rx="22" transform="rotate(45 23.8562 152.828)" stroke="white" stroke-width="4"/>
<path d="M22.9301 285C21.7769 285 20.8109 284.611 20.0322 283.832C19.2534 283.053 18.8627 282.091 18.86 280.944V276.281C15.8074 275.605 13.1279 274.422 10.8214 272.732C8.51503 271.042 6.64955 268.676 5.22501 265.635C4.75016 264.688 4.73387 263.692 5.17616 262.646C5.61845 261.599 6.41484 260.838 7.56533 260.362C8.51503 259.957 9.49865 259.975 10.5162 260.415C11.5337 260.856 12.3138 261.582 12.8565 262.593C14.0097 264.621 15.4682 266.159 17.2319 267.208C18.9956 268.257 21.1664 268.78 23.7441 268.778C26.5254 268.778 28.882 268.153 30.8139 266.904C32.7459 265.655 33.7132 263.711 33.716 261.072C33.716 258.706 32.9698 256.831 31.4774 255.447C29.985 254.063 26.5254 252.491 21.0985 250.731C15.2647 248.906 11.2624 246.726 9.09163 244.193C6.92089 241.66 5.83552 238.567 5.83552 234.914C5.83552 230.52 7.26007 227.107 10.1092 224.674C12.9583 222.24 15.8752 220.855 18.86 220.517V216.056C18.86 214.906 19.2507 213.943 20.0322 213.164C20.8136 212.385 21.7796 211.997 22.9301 212C24.0806 212.003 25.0479 212.392 25.8321 213.168C26.6163 213.944 27.0057 214.906 27.0002 216.056V220.517C29.578 220.922 31.8166 221.751 33.716 223.003C35.6154 224.255 37.1756 225.792 38.3966 227.614C39.0071 228.493 39.1265 229.473 38.7548 230.554C38.383 231.636 37.6192 232.413 36.4633 232.886C35.5136 233.292 34.53 233.309 33.5124 232.939C32.4949 232.568 31.5452 231.909 30.6634 230.96C29.7815 230.011 28.7463 229.285 27.5578 228.782C26.3694 228.279 24.8946 228.025 23.1336 228.019C20.1488 228.019 17.8763 228.679 16.3161 229.999C14.7559 231.318 13.9758 232.956 13.9758 234.914C13.9758 237.144 14.9933 238.902 17.0284 240.186C19.0635 241.47 22.5909 242.822 27.6108 244.242C32.2914 245.594 35.8365 247.74 38.246 250.682C40.6555 253.624 41.8589 257.019 41.8562 260.869C41.8562 265.669 40.4317 269.319 37.5826 271.819C34.7335 274.32 31.206 275.875 27.0002 276.483V280.944C27.0002 282.094 26.6095 283.057 25.828 283.836C25.0466 284.615 24.0806 285.003 22.9301 285Z" fill="white"/>
<rect x="441.422" y="109.895" width="135.804" height="135.804" rx="22" transform="rotate(45 441.422 109.895)" stroke="white" stroke-width="4"/>
</g>
</g>
<defs>
<linearGradient id="paint0_linear_144_1206" x1="195" y1="0" x2="195" y2="480.154" gradientUnits="userSpaceOnUse">
<stop stop-color="#D9D9D9" stop-opacity="0"/>
<stop offset="1" stop-color="#737373"/>
</linearGradient>
</defs>
</svg>
