<svg width="20" height="20" viewBox="0 0 20 20" fill="none" xmlns="http://www.w3.org/2000/svg">
<path d="M10.0012 19.3332C12.0721 19.3329 14.0841 18.6438 15.7204 17.3746C17.3567 16.1053 18.5244 14.3279 19.0396 12.3222C19.5549 10.3164 19.3885 8.19626 18.5666 6.29548C17.7446 4.39471 16.3139 2.82126 14.4996 1.82286C12.6853 0.824453 10.5905 0.457798 8.54492 0.780615C6.49936 1.10343 4.61926 2.09739 3.2006 3.606C1.78193 5.11461 0.90529 7.05219 0.708676 9.11371C0.512062 11.1752 1.00665 13.2436 2.11456 14.9932L1.15981 17.8574C0.957128 18.4655 1.53559 19.0439 2.14363 18.8413L5.00789 17.8865C6.50079 18.834 8.23304 19.3359 10.0012 19.3332Z" fill="white"/>
<path d="M8.44428 8.44428C8.44428 9.30339 7.74784 9.99984 6.88873 9.99984C6.02962 9.99984 5.33317 9.30339 5.33317 8.44428C5.33317 7.58517 6.02962 6.88873 6.88873 6.88873C7.74784 6.88873 8.44428 7.58517 8.44428 8.44428Z" fill="#2885FF"/>
<path d="M14.6665 8.44428C14.6665 9.30339 13.9701 9.99984 13.1109 9.99984C12.2518 9.99984 11.5554 9.30339 11.5554 8.44428C11.5554 7.58517 12.2518 6.88873 13.1109 6.88873C13.9701 6.88873 14.6665 7.58517 14.6665 8.44428Z" fill="#2885FF"/>
</svg>
