<svg width="20" height="20" viewBox="0 0 20 20" fill="none" xmlns="http://www.w3.org/2000/svg">
<path d="M0.666504 6.88873C0.666504 3.45229 3.45229 0.666504 6.88873 0.666504H13.1109C16.5474 0.666504 19.3332 3.45229 19.3332 6.88873V13.1109C19.3332 16.5474 16.5474 19.3332 13.1109 19.3332H6.88873C3.45229 19.3332 0.666504 16.5474 0.666504 13.1109V6.88873Z" fill="white"/>
<path d="M5.33317 11.5554C5.33317 12.4145 4.63672 13.1109 3.77762 13.1109C2.91851 13.1109 2.22206 12.4145 2.22206 11.5554C2.22206 10.6963 2.91851 9.99984 3.77762 9.99984C4.63672 9.99984 5.33317 10.6963 5.33317 11.5554Z" fill="#2885FF"/>
<path d="M9.22206 6.11095C9.22206 6.97006 8.52561 7.6665 7.6665 7.6665C6.80739 7.6665 6.11095 6.97006 6.11095 6.11095C6.11095 5.25184 6.80739 4.55539 7.6665 4.55539C8.52561 4.55539 9.22206 5.25184 9.22206 6.11095Z" fill="#2885FF"/>
<path d="M13.1109 13.1109C13.1109 13.9701 12.4145 14.6665 11.5554 14.6665C10.6963 14.6665 9.99984 13.9701 9.99984 13.1109C9.99984 12.2518 10.6963 11.5554 11.5554 11.5554C12.4145 11.5554 13.1109 12.2518 13.1109 13.1109Z" fill="#2885FF"/>
<path d="M16.9998 6.88873C16.9998 7.74784 16.3034 8.44428 15.4443 8.44428C14.5852 8.44428 13.8887 7.74784 13.8887 6.88873C13.8887 6.02962 14.5852 5.33317 15.4443 5.33317C16.3034 5.33317 16.9998 6.02962 16.9998 6.88873Z" fill="#2885FF"/>
<path d="M7.41244 6.11095L8.04372 6.56528L4.40904 11.6155L3.77775 11.1612L7.41244 6.11095Z" fill="#2885FF"/>
<path d="M15.1902 6.88873L15.8215 7.34306L12.1868 12.3933L11.5555 11.939L15.1902 6.88873Z" fill="#2885FF"/>
<path d="M11.9481 12.9435L11.2742 13.3318L6.88893 5.7217L7.56283 5.33337L11.9481 12.9435Z" fill="#2885FF"/>
</svg>
