<svg width="20" height="20" viewBox="0 0 20 20" fill="none" xmlns="http://www.w3.org/2000/svg">
<path d="M1.91095 6.18534C1.12755 6.79844 0.666504 7.76063 0.666504 8.78245V14.4636C0.666504 17.153 2.75584 19.3332 5.33317 19.3332H5.6665C6.77107 19.3332 7.6665 18.4377 7.6665 17.3332V14.8404C7.6665 13.7358 8.56193 12.8404 9.6665 12.8404H10.3332C11.4377 12.8404 12.3332 13.7358 12.3332 14.8404V17.3332C12.3332 18.4377 13.2286 19.3332 14.3332 19.3332H14.6665C17.2438 19.3332 19.3332 17.153 19.3332 14.4636V8.78245C19.3332 7.76063 18.8721 6.79844 18.0887 6.18535L11.8665 1.31578C10.7603 0.450079 9.23934 0.450079 8.13317 1.31578L1.91095 6.18534Z" fill="white"/>
</svg>
