<svg width="20" height="20" viewBox="0 0 20 20" fill="none" xmlns="http://www.w3.org/2000/svg">
<path fill-rule="evenodd" clip-rule="evenodd" d="M5.85169 4.81465C5.85169 3.71449 6.28873 2.6594 7.06665 1.88147C7.84458 1.10354 8.89968 0.666504 9.99984 0.666504C11.1 0.666504 12.1551 1.10354 12.933 1.88147C13.711 2.6594 14.148 3.71449 14.148 4.81465C14.148 5.91481 13.711 6.96991 12.933 7.74784C12.1551 8.52577 11.1 8.9628 9.99984 8.9628C8.89968 8.9628 7.84458 8.52577 7.06665 7.74784C6.28873 6.96991 5.85169 5.91481 5.85169 4.81465ZM5.85169 11.0369C4.47649 11.0369 3.15762 11.5832 2.18521 12.5556C1.2128 13.528 0.666504 14.8469 0.666504 16.2221C0.666504 17.0472 0.994281 17.8385 1.57773 18.4219C2.16117 19.0054 2.9525 19.3332 3.77762 19.3332H16.2221C17.0472 19.3332 17.8385 19.0054 18.4219 18.4219C19.0054 17.8385 19.3332 17.0472 19.3332 16.2221C19.3332 14.8469 18.7869 13.528 17.8145 12.5556C16.8421 11.5832 15.5232 11.0369 14.148 11.0369H5.85169Z" fill="white"/>
</svg>
