<svg width="32" height="32" viewBox="0 0 32 32" fill="none" xmlns="http://www.w3.org/2000/svg">
<path d="M3 16H29V7C29 4.79086 27.2091 3 25 3H7C4.79086 3 3 4.79086 3 7V16Z" fill="#ABCFFF"/>
<path fill-rule="evenodd" clip-rule="evenodd" d="M6.66683 4.00016C5.19407 4.00016 4.00016 5.19407 4.00016 6.66683V9.3335C4.00016 10.0699 3.40321 10.6668 2.66683 10.6668C1.93045 10.6668 1.3335 10.0699 1.3335 9.3335V6.66683C1.3335 3.72131 3.72131 1.3335 6.66683 1.3335H9.3335C10.0699 1.3335 10.6668 1.93045 10.6668 2.66683C10.6668 3.40321 10.0699 4.00016 9.3335 4.00016H6.66683ZM21.3335 2.66683C21.3335 1.93045 21.9304 1.3335 22.6668 1.3335H25.3335C28.279 1.3335 30.6668 3.72131 30.6668 6.66683V9.3335C30.6668 10.0699 30.0699 10.6668 29.3335 10.6668C28.5971 10.6668 28.0002 10.0699 28.0002 9.3335V6.66683C28.0002 5.19407 26.8063 4.00016 25.3335 4.00016H22.6668C21.9304 4.00016 21.3335 3.40321 21.3335 2.66683ZM2.66683 21.3335C3.40321 21.3335 4.00016 21.9304 4.00016 22.6668V25.3335C4.00016 26.8063 5.19407 28.0002 6.66683 28.0002H9.3335C10.0699 28.0002 10.6668 28.5971 10.6668 29.3335C10.6668 30.0699 10.0699 30.6668 9.3335 30.6668H6.66683C3.72131 30.6668 1.3335 28.279 1.3335 25.3335V22.6668C1.3335 21.9304 1.93045 21.3335 2.66683 21.3335ZM29.3335 21.3335C30.0699 21.3335 30.6668 21.9304 30.6668 22.6668V25.3335C30.6668 28.279 28.279 30.6668 25.3335 30.6668H22.6668C21.9304 30.6668 21.3335 30.0699 21.3335 29.3335C21.3335 28.5971 21.9304 28.0002 22.6668 28.0002H25.3335C26.8063 28.0002 28.0002 26.8063 28.0002 25.3335V22.6668C28.0002 21.9304 28.5971 21.3335 29.3335 21.3335Z" fill="#2885FF"/>
<path fill-rule="evenodd" clip-rule="evenodd" d="M1.3335 16.0002C1.3335 15.2638 1.93045 14.6668 2.66683 14.6668H29.3335C30.0699 14.6668 30.6668 15.2638 30.6668 16.0002C30.6668 16.7365 30.0699 17.3335 29.3335 17.3335H2.66683C1.93045 17.3335 1.3335 16.7365 1.3335 16.0002Z" fill="#2885FF"/>
</svg>
