<svg width="40" height="52" viewBox="0 0 40 52" fill="none" xmlns="http://www.w3.org/2000/svg">
<path fill-rule="evenodd" clip-rule="evenodd" d="M35.0815 2.43928L3.53953 8.57078L5.75726 18.1127L21.5283 15.047L37.2992 11.9812L35.0815 2.43928ZM2.9851 6.18529C1.54453 6.46533 0.624936 7.76036 0.93114 9.07783L3.14887 18.6198C3.45507 19.9372 4.87111 20.7782 6.31169 20.4982L37.8537 14.3667C39.2943 14.0867 40.2138 12.7916 39.9076 11.4742L37.6899 1.93223C37.3837 0.614761 35.9677 -0.226242 34.5271 0.0537938L2.9851 6.18529Z" fill="white"/>
<path fill-rule="evenodd" clip-rule="evenodd" d="M35.0278 33.9227L3.6682 40.0188L5.88592 49.5607L37.2456 43.4647L35.0278 33.9227ZM3.11377 37.6333C1.67319 37.9133 0.753599 39.2084 1.0598 40.5258L3.27753 50.0678C3.58373 51.3852 4.99978 52.2262 6.44035 51.9462L37.8 45.8502C39.2406 45.5701 40.1602 44.2751 39.854 42.9576L37.6362 33.4157C37.33 32.0982 35.914 31.2572 34.4734 31.5373L3.11377 37.6333Z" fill="white"/>
<path d="M0 23.2256C0 21.8787 1.19391 20.7869 2.66667 20.7869H37.3333C38.8061 20.7869 40 21.8787 40 23.2256V28.7129C40 30.0598 38.8061 31.1517 37.3333 31.1517H2.66667C1.19391 31.1517 0 30.0598 0 28.7129V23.2256Z" fill="white"/>
</svg>
